<svg xmlns="http://www.w3.org/2000/svg" width="48" height="48" fill="none" viewBox="0 0 48 48">
  <rect width="47" height="47" x=".5" y=".5" fill="#F7FAFB" stroke="#E9EBEE" rx="15.5"/>
  <path fill="#F9DADB" stroke="#333" d="M36.346 26.457a5.66 5.66 0 0 0-6.566-1.042L15.61 11.249c-.559-.56-1.514-.1-1.419.688l.015.126a9.02 9.02 0 0 0 2.58 5.314L27.3 27.89a5.66 5.66 0 0 0 1.476 6.962c2.028 1.658 5.037 1.673 7.083.038a5.662 5.662 0 0 0 .483-8.438zm-2.389 5.615a2.282 2.282 0 1 1-3.23-3.226 2.282 2.282 0 0 1 3.23 3.226Z" stroke-linecap="round" stroke-linejoin="round"/>
  <path fill="#FC9EA9" stroke="#333" d="M12.14 34.89c2.047 1.636 5.057 1.621 7.084-.037A5.66 5.66 0 0 0 20.7 27.89l10.514-10.514a9.04 9.04 0 0 0 2.58-5.314l.015-.126c.095-.787-.86-1.251-1.42-.688L18.225 25.415a5.66 5.66 0 0 0-6.083 9.48zm1.903-6.048a2.282 2.282 0 1 1 3.23 3.226 2.282 2.282 0 0 1-3.23-3.226Z" stroke-linecap="round" stroke-linejoin="round"/>
</svg>
