<svg xmlns="http://www.w3.org/2000/svg" fill="none" viewBox="0 0 56 56">
  <rect width="55" height="55" x=".5" y=".5" stroke="#E0E0E0" rx="19.5"/>
  <path fill="#333" d="m25.778 36 .64-.284-.185-.416h-.455zm2.13 4.794.64-.284zm.183 0-.64-.284zM30.222 36v-.7h-.455l-.184.416zM15.7 16a.3.3 0 0 1 .3-.3v-1.4a1.7 1.7 0 0 0-1.7 1.7zm0 19V16h-1.4v19zm.3.3a.3.3 0 0 1-.3-.3h-1.4a1.7 1.7 0 0 0 1.7 1.7zm9.778 0H16v1.4h9.778zm2.77 5.21-2.13-4.794-1.28.568 2.131 4.795zm-1.096 0a.6.6 0 0 1 1.096 0l-1.28.569a.8.8 0 0 0 1.463 0zm2.13-4.794-2.13 4.794 1.279.569 2.13-4.795zM40 35.3h-9.778v1.4H40zm.3-.3a.3.3 0 0 1-.3.3v1.4a1.7 1.7 0 0 0 1.7-1.7zm0-19v19h1.4V16zm-.3-.3a.3.3 0 0 1 .3.3h1.4a1.7 1.7 0 0 0-1.7-1.7zm-24 0h24v-1.4H16z"/>
  <path stroke="#333" d="M23.571 26.285V32M32.77 20l-.001 12" stroke-linecap="round" stroke-width="1.2"/>
  <path stroke="#00BDAD" d="M26.143 23.429c0 1.893-1.151 2.571-2.572 2.571-1.42 0-2.571-.678-2.571-2.571S22.151 20 23.571 20s2.572 1.535 2.572 3.429Z" stroke-linecap="round" stroke-width="1.2"/>
  <path stroke="#333" d="M30 20v3.462c0 1.147.93 2.076 2.077 2.076h1.385c1.147 0 2.076-.93 2.076-2.076V20" stroke-linecap="round" stroke-width="1.2"/>
</svg>
