<svg xmlns="http://www.w3.org/2000/svg" fill="none" viewBox="0 0 44 44">
  <rect width="43" height="43" x=".5" y=".5" fill="#F7FAFB" stroke="#F1F2F5" rx="15.5"/>
  <rect width="10" height="26" x="22.5" y="9" fill="#B4DBFF" stroke="#333" rx=".5"/>
  <rect width="15" height="21" x="11" y="14" fill="#E4F2FF" rx="1"/>
  <rect width="15" height="21" x="11" y="14" stroke="#333" rx="1" stroke-linecap="round"/>
  <path fill="#fff" d="M21.082 35.042v-2.75c0-.698 0-1.047-.086-1.33a2 2 0 0 0-1.333-1.334c-.284-.086-.633-.086-1.331-.086s-1.047 0-1.33.086a2 2 0 0 0-1.334 1.333c-.086.284-.086.633-.086 1.33v2.75z"/>
  <path fill="#333" d="M13.75 17.625h1.833v1.833H13.75zm3.667 0h1.833v1.833h-1.833zm5.5 0h-1.834v1.833h1.834zm-9.167 3.667h1.833v1.833H13.75zm5.5 0h-1.833v1.833h1.833zm1.833 0h1.834v1.833h-1.834zm-5.5 3.666H13.75v1.834h1.833zm1.834 0h1.833v1.834h-1.833zm5.5 0h-1.834v1.834h1.834z" clip-rule="evenodd" fill-rule="evenodd"/>
</svg>
