<svg xmlns="http://www.w3.org/2000/svg" fill="none" viewBox="0 0 44 44">
  <rect width="43" height="43" x=".5" y=".5" fill="#F7FAFB" stroke="#F1F2F5" rx="15.5"/>
  <path fill="#FDA993" d="M16.728 18.158A27.2 27.2 0 0 1 8.864 16L8 15.609V10.5h9.603"/>
  <path stroke="#333" d="M16.728 18.158A27.2 27.2 0 0 1 8.864 16L8 15.609V10.5h9.603z" stroke-linecap="round"/>
  <path fill="#F8CFA8" d="M15.434 22.921a73 73 0 0 0 1.544-2.483l.757-1.33H28.81l.758 1.33c.471.806 1.002 1.635 1.544 2.483 1.856 2.901 3.858 6.03 4.122 9.249.053.7.08 1.05-.063 1.311a1 1 0 0 1-.331.357c-.249.162-.6.162-1.303.162H13.01c-.703 0-1.054 0-1.303-.162a1 1 0 0 1-.33-.357c-.144-.26-.117-.61-.064-1.311.264-3.22 2.266-6.348 4.122-9.249" clip-rule="evenodd" fill-rule="evenodd"/>
  <path fill="#FDA892" d="m35.928 15.135-4.456 11.783-3.894 1.36L24 25.725 31.039 10h.603z"/>
  <path stroke="#333" d="m31.408 10.5 3.949 4.73-4.27 11.293-3.43 1.198-3.033-2.166L31.363 10.5z" stroke-linecap="round"/>
  <path fill="#FDA892" d="M31.75 10H16.605l-.875 7.608L15.454 20h11.843"/>
  <path fill="#fff" stroke="#333" d="m27.273 10.538-1.597 2.145c-.734.987-1.102 1.48-1.604 1.48s-.87-.493-1.604-1.48l-1.597-2.145z" stroke-linecap="round"/>
  <path fill="#333" d="M21.477 16.036c-.377-.003-.67-.006-.67.761 0 .761.334.761.747.761h1.525l-3.246 9.982c-.133.402-.052.722.504.938.557.216.933-.141 1.066-.543l3.374-10.377h1.237c.412 0 .747 0 .747-.76 0-.768-.294-.765-.67-.762z" clip-rule="evenodd" fill-rule="evenodd"/>
</svg>
