<svg xmlns="http://www.w3.org/2000/svg" viewBox="0 0 44 44" fill="none">
  <rect x="0.5" y="0.5" width="43" height="43" rx="15.5" fill="#F7FAFB" stroke="#F1F2F5"/>
  <path d="M22.0409 8.5C16.4209 8.5 11.7642 12.8009 10.8008 17.5H33.2008C32.2373 12.8009 27.661 8.5 22.0409 8.5Z" fill="white" stroke="#333333" stroke-linecap="round"/>
  <path fill-rule="evenodd" clip-rule="evenodd" d="M25.419 30.3191C30.7604 28.8015 34.731 23.865 34.7992 18H9.19922C9.26774 23.8899 13.2147 28.8434 18.5713 30.3382L17.0691 33.3143C16.893 33.6571 17.0691 34 17.4213 34H26.5787C26.9309 34 27.107 33.6571 26.9309 33.3143L25.419 30.3191Z" fill="#AEE8DC"/>
  <path fill-rule="evenodd" clip-rule="evenodd" d="M34.1484 21.9262H9.84148C9.84148 21.9262 9.69199 21.4784 9.61938 21.1654C9.51978 20.736 9.42969 20.3262 9.42969 20.3262H34.5664C34.5664 20.3262 34.4609 20.8711 34.3633 21.1836C34.2879 21.4971 34.1484 21.9262 34.1484 21.9262Z" fill="#0BBD97"/>
</svg>
