<svg xmlns="http://www.w3.org/2000/svg" width="45" height="44" viewBox="0 0 45 44" fill="none">
  <rect x="1" y="0.5" width="43" height="43" rx="15.5" fill="#F7FAFB" stroke="#F1F2F5"/>
  <path fill-rule="evenodd" clip-rule="evenodd" d="M32.8981 11.3984H24.0981V16.1984H32.8981L34.4981 13.7984L32.8981 11.3984ZM30.4981 19.3984H24.0981V24.1984H30.4981L32.0981 21.7984L30.4981 19.3984ZM19.3012 20.1992L12.1012 20.1992L10.5012 17.7992L12.1012 15.3992L19.3012 15.3992V20.1992Z" fill="#C9F5FF"/>
  <path d="M24.0981 11.3984V10.8984H23.5981V11.3984H24.0981ZM32.8981 11.3984L33.3141 11.1211L33.1657 10.8984H32.8981V11.3984ZM24.0981 16.1984H23.5981V16.6984H24.0981V16.1984ZM32.8981 16.1984V16.6984H33.1657L33.3141 16.4758L32.8981 16.1984ZM34.4981 13.7984L34.9141 14.0758L35.099 13.7984L34.9141 13.5211L34.4981 13.7984ZM24.0981 19.3984V18.8984H23.5981V19.3984H24.0981ZM30.4981 19.3984L30.9141 19.1211L30.7657 18.8984H30.4981V19.3984ZM24.0981 24.1984H23.5981V24.6984H24.0981V24.1984ZM30.4981 24.1984V24.6984H30.7657L30.9141 24.4758L30.4981 24.1984ZM32.0981 21.7984L32.5141 22.0758L32.699 21.7984L32.5141 21.5211L32.0981 21.7984ZM12.1012 20.1992L11.6852 20.4766L11.8336 20.6992H12.1012L12.1012 20.1992ZM19.3012 20.1992V20.6992H19.8012V20.1992H19.3012ZM10.5012 17.7992L10.0852 17.5219L9.9003 17.7992L10.0852 18.0766L10.5012 17.7992ZM12.1012 15.3992V14.8992H11.8336L11.6852 15.1219L12.1012 15.3992ZM19.3012 15.3992H19.8012V14.8992H19.3012V15.3992Z" fill="#333333"/>
  <rect x="19.3" y="8.19922" width="4.8" height="25.6" rx="2" fill="#F7F8FA" stroke="#333333" stroke-linecap="round"/>
</svg>
