<svg xmlns="http://www.w3.org/2000/svg" width="64" height="64" fill="none" viewBox="0 0 64 64">
  <rect width="63" height="63" x=".5" y=".5" stroke="#E0E0E0" rx="19.5"/>
  <path fill="#FFE8D7" stroke="#333" d="M19.5 24.5h25l-2.406 22.855a1 1 0 0 1-.994.895H22.9a1 1 0 0 1-.994-.895z" stroke-linecap="round" stroke-linejoin="round" stroke-width="1.4"/>
  <path fill="#fff" stroke="#333" d="M43.886 30.05h-23.75l1.252 12.45h21.227z" stroke-width="1.4"/>
  <circle cx="32" cy="36.375" r="3.125" fill="#9AE4D7"/>
  <rect width="27.5" height="5" x="18.25" y="19.5" fill="#EFAE71" stroke="#333" rx="1" stroke-linecap="round" stroke-linejoin="round" stroke-width="1.4"/>
  <path fill="#EFAE71" stroke="#333" d="M22.957 16.45a1 1 0 0 1 .954-.7h16.178a1 1 0 0 1 .954.7L42 19.5H22z" stroke-linecap="round" stroke-linejoin="round" stroke-width="1.4"/>
</svg>
