<svg xmlns="http://www.w3.org/2000/svg" width="64" height="64" fill="none" viewBox="0 0 64 64">
  <rect width="63" height="63" x=".5" y=".5" stroke="#E0E0E0" rx="19.5"/>
  <rect width="35" height="3.75" x="14.5" y="38.25" fill="#DEE1E9" stroke="#333" rx="1.875" stroke-linecap="round" stroke-width="1.4"/>
  <path stroke="#333" d="M15.2 47.55h33.6" stroke-linecap="round" stroke-width="1.4"/>
  <path fill="#DEE1E9" d="M47.25 38.25c.505 0 .935-.376.968-.88q.032-.492.032-.995c0-8.63-7.275-15.625-16.25-15.625s-16.25 6.996-16.25 15.625q0 .501.033.996c.032.503.462.879.966.879z" clip-rule="evenodd" fill-rule="evenodd"/>
  <path stroke="#A8AEBE" d="M42.5 32.25C41.75 29 38.5 26 35 26" stroke-linecap="round" stroke-linejoin="round" stroke-width="1.7"/>
  <path stroke="#333" d="M31.75 20.75V17" stroke-width="1.4"/>
  <path stroke="#333" d="M28.95 16.3h6.1" stroke-linecap="round" stroke-width="1.4"/>
</svg>
