<svg xmlns="http://www.w3.org/2000/svg" fill="none" viewBox="0 0 44 44">
  <rect width="43" height="43" x=".5" y=".5" fill="#F7FAFB" stroke="#F1F2F5" rx="15.5"/>
  <path fill="#BAE6FF" d="M11.085 18.356c6.03-6.031 15.798-6.031 21.828 0a.894.894 0 0 0 1.265-1.265c-6.73-6.728-17.629-6.728-24.358 0a.894.894 0 1 0 1.265 1.265m18.227 3.602c-4.04-4.032-10.586-4.03-14.617 0a.894.894 0 0 1-1.264-1.265c4.73-4.729 12.406-4.728 17.144 0a.894.894 0 1 1-1.263 1.265m-11.016 3.61a5.23 5.23 0 0 1 7.393 0 .894.894 0 1 0 1.264-1.264 7.02 7.02 0 0 0-9.922 0 .894.894 0 1 0 1.265 1.265m5.81 4.152a2.235 2.235 0 1 1-4.47 0 2.235 2.235 0 0 1 4.47 0" clip-rule="evenodd" fill-rule="evenodd"/>
</svg>
