<svg xmlns="http://www.w3.org/2000/svg" width="45" height="44" fill="none" viewBox="0 0 45 44">
  <rect width="43" height="43" x="1" y=".5" fill="#F7FAFB" stroke="#F1F2F5" rx="15.5"/>
  <path fill="#333" d="M16.8 11a2.7 2.7 0 0 1 2.7-2.7h6a2.7 2.7 0 0 1 2.7 2.7v3h-1.4v-3a1.3 1.3 0 0 0-1.3-1.3h-6a1.3 1.3 0 0 0-1.3 1.3v3h-1.4z" clip-rule="evenodd" fill-rule="evenodd"/>
  <rect width="21" height="21" x="12" y="13.5" fill="#CDD5FF" stroke="#333" rx="2.5" stroke-linecap="round"/>
  <path fill="#333" d="M17.9 33.7a.7.7 0 1 0-1.4 0v1.6a.7.7 0 1 0 1.4 0zm11 0a.7.7 0 1 0-1.4 0v1.6a.7.7 0 1 0 1.4 0z" clip-rule="evenodd" fill-rule="evenodd"/>
  <path fill="#333" d="M12.5 20h20v-1.4h-20zm5.7 3a.7.7 0 1 0-1.4 0v6a.7.7 0 1 0 1.4 0zm5 0a.7.7 0 1 0-1.4 0v6a.7.7 0 1 0 1.4 0zm5 0a.7.7 0 1 0-1.4 0v6a.7.7 0 1 0 1.4 0z" clip-rule="evenodd" fill-rule="evenodd"/>
</svg>
