<svg xmlns="http://www.w3.org/2000/svg" viewBox="0 0 44 44" fill="none">
  <rect x="0.5" y="0.5" width="43" height="43" rx="15.5" fill="#F7FAFB" stroke="#F1F2F5"/>
  <path fill-rule="evenodd" clip-rule="evenodd" d="M29.7282 14.8263C29.727 14.2299 29.5078 13.6313 29.0471 13.1811C28.1357 12.2722 26.6551 12.273 25.7447 13.1834L20.5553 18.3728C20.3796 18.0127 20.1329 17.5375 19.8317 17.0386C19.5168 16.5169 19.1362 15.9588 18.7084 15.4768C18.2855 15.0003 17.7878 14.5651 17.2314 14.3331C16.2126 13.9081 15.3047 13.9527 14.6477 14.3865C13.9947 14.8177 13.6934 15.5684 13.7694 16.3225C13.8095 16.7203 13.9946 17.1379 14.1993 17.5421C14.297 17.7352 14.4077 17.9408 14.5223 18.1536L14.5509 18.2068C14.6768 18.4408 14.8086 18.6868 14.9417 18.95C15.4473 19.9494 15.9667 21.1869 16.1578 22.7619L16.0066 22.9131L15.6853 23.2343L15.1897 23.73C12.9389 25.9808 12.9377 29.6385 15.1805 31.8812L18.1177 34.8185L18.1185 34.8193C20.3692 37.0599 24.0355 37.0611 26.2781 34.8185L27.095 34.0015L27.912 33.1846L27.9113 33.1839L27.912 33.1832L31.6387 29.4565C32.09 29.0051 32.328 28.4085 32.3175 27.8039C32.3163 27.2075 32.0971 26.6089 31.6364 26.1587C31.1097 25.6334 30.393 25.412 29.706 25.4943C29.7169 25.3988 29.7215 25.3026 29.7198 25.2062C29.7186 24.6098 29.4995 24.0112 29.0387 23.561C28.5123 23.036 27.7961 22.8145 27.1094 22.8965C27.1195 22.8041 27.1238 22.7111 27.1222 22.6178C27.121 22.0214 26.9018 21.4229 26.4411 20.9726C26.0903 20.6229 25.6553 20.4078 25.2009 20.3274L29.0494 16.479C29.5008 16.0276 29.7387 15.4309 29.7282 14.8263Z" fill="#333333"/>
  <path d="M24.4068 7.61885C24.2107 7.42266 23.9778 7.26702 23.7216 7.16084C23.4653 7.05465 23.1906 7 22.9132 7C22.6358 7 22.3612 7.05465 22.1049 7.16084C21.8486 7.26702 21.6158 7.42266 21.4197 7.61885L21.0127 8.02583L20.6057 7.61885C20.2096 7.22274 19.6724 7.00021 19.1122 7.00021C18.552 7.00021 18.0148 7.22274 17.6186 7.61885C17.2225 8.01496 17 8.55221 17 9.11239C17 9.67258 17.2225 10.2098 17.6186 10.6059L18.0256 11.0129L21.0127 14L23.9998 11.0129L24.4068 10.6059C24.603 10.4098 24.7586 10.177 24.8648 9.92073C24.971 9.66446 25.0256 9.38979 25.0256 9.11239C25.0256 8.835 24.971 8.56032 24.8648 8.30405C24.7586 8.04779 24.603 7.81495 24.4068 7.61885Z" fill="#FF5C5C" fill-opacity="0.6" stroke="#333333" stroke-linecap="round"/>
</svg>
