<svg xmlns="http://www.w3.org/2000/svg" fill="none" viewBox="0 0 35 35">
  <path fill="#FFF1E6" stroke="#3B4047" d="M12.377 28.913h3.856v2.25h9.173s-.35-3.264 1.834-6.076c1.705-2.195 2.837-4.84 2.655-9.042-.182-4.195-3.437-8.049-8.668-8.458-2.73-.216-6.107.625-8.109 2.75-1.887 2-1.63 4.465-1.914 6.958-.094.84-4.07 5.542-2.48 5.826l1.563.285.344 3.507s.189 2.007 1.746 2.007z" stroke-linejoin="round" stroke-width="1.2"/>
  <path stroke="#3B4047" d="M16.907 17.962c-.081.576-.93.916-1.895.757-.963-.16-1.678-.75-1.59-1.334" stroke-linecap="round" stroke-linejoin="round" stroke-width="1.2"/>
  <path fill="#FDD83F" stroke="#3B4047" d="m10.315 8.093 1.683-.45-1.683-.45a2.3 2.3 0 0 1-1.63-1.629l-.65-2.42-.649 2.42a2.3 2.3 0 0 1-1.63 1.63l-1.682.45 1.682.45a2.3 2.3 0 0 1 1.63 1.628l.65 2.421.649-2.42a2.3 2.3 0 0 1 1.63-1.63ZM29.958 25.878l1.682-.45-1.682-.45a2.3 2.3 0 0 1-1.63-1.629l-.65-2.42-.649 2.42a2.3 2.3 0 0 1-1.63 1.63l-1.682.45 1.682.45a2.3 2.3 0 0 1 1.63 1.628l.65 2.421.649-2.42a2.3 2.3 0 0 1 1.63-1.63Z" stroke-linejoin="round" stroke-width="1.2"/>
</svg>
