<svg xmlns="http://www.w3.org/2000/svg" fill="none" viewBox="0 0 35 35">
  <path fill="#fff" stroke="#3B4047" d="M17.587 22.352c1.734 0 2.203 1.593 2.851 3.944.54 1.953 1.227 4.413 3.398 3.507 2.172-.913 1.14-5.21 3.468-10.185 2.094-4.476 5.062-10.701-.508-13.74-5.108-2.788-7.584 1.953-9.216 1.953-1.633 0-4.101-4.733-9.202-1.952-5.561 3.038-3.038 9.263-.937 13.739 2.328 4.976 1.734 9.272 3.905 10.185 2.172.914 2.86-1.546 3.398-3.507.649-2.35 1.117-3.944 2.851-3.944z" stroke-linejoin="round" stroke-width="1.2"/>
  <path stroke="#3B4047" d="M21.406 10.276a5.525 5.525 0 0 1-7.81 0" stroke-linejoin="round" stroke-width="1.2"/>
</svg>
