<svg xmlns="http://www.w3.org/2000/svg" width="40" height="40" fill="none" viewBox="0 0 40 40">
  <path fill="#E9EBEE" d="M3.194 16.666S9.305 4.443 20 4.443s16.805 12.223 16.805 12.223S30.695 28.888 20 28.888 3.194 16.666 3.194 16.666"/>
  <path fill="#D7D9DD" d="M3.194 16.665 20 16.666h16.805S30.695 4.442 20 4.442 3.194 16.665 3.194 16.665"/>
  <path fill="#3B4047" stroke="#3B4047" d="M20 22.783a6.118 6.118 0 1 0 0-12.236 6.118 6.118 0 0 0 0 12.236Z" stroke-linecap="round" stroke-linejoin="round" stroke-width="1.111"/>
  <path fill="#F7F8FA" d="M21.432 16.667a1.432 1.432 0 1 0 0-2.864 1.432 1.432 0 0 0 0 2.864"/>
  <path fill="#0AC84C" d="M25.556 21.111h6.667v15.556h-6.667z"/>
  <path fill="#0AC84C" d="M21.112 32.223v-6.667h15.556v6.667z"/>
</svg>
