<svg xmlns="http://www.w3.org/2000/svg" fill="none" viewBox="0 0 24 24">
  <path fill="#333" d="M21 5.33v1.14H9.219V5.33zm0 6.14v1.14H9.219v-1.14zm0 7.28v-1.14H9.219v1.14z" clip-rule="evenodd" fill-rule="evenodd"/>
  <path fill="#333" d="M4.8 13.8a1.8 1.8 0 1 0 0-3.6 1.8 1.8 0 0 0 0 3.6m0-2.49a.69.69 0 1 1 0 1.378.69.69 0 0 1 0-1.378" clip-rule="evenodd" fill-rule="evenodd"/>
  <path fill="#333" d="M4.8 19.9a1.8 1.8 0 1 0 0-3.6 1.8 1.8 0 0 0 0 3.6m0-2.488a.69.69 0 1 1 0 1.378.69.69 0 0 1 0-1.378" clip-rule="evenodd" fill-rule="evenodd"/>
  <path fill="#333" d="M4.8 7.7a1.8 1.8 0 1 0 0-3.6 1.8 1.8 0 0 0 0 3.6m0-2.49a.69.69 0 1 1 0 1.379.69.69 0 0 1 0-1.378" clip-rule="evenodd" fill-rule="evenodd"/>
</svg>
