<svg xmlns="http://www.w3.org/2000/svg" fill="none" viewBox="0 0 44 44">
  <rect width="43" height="43" x=".5" y=".5" fill="#F7FAFB" stroke="#F1F2F5" rx="15.5"/>
  <circle cx="22" cy="21" r="13.5" fill="#27C7A3" stroke="#333" fill-opacity=".25" stroke-linecap="round"/>
  <path fill="#333" d="M26.861 16.66c.458 0 .791.433.674.876l-.731 2.764H29.5a.7.7 0 1 1 0 1.4h-3l-.067-.003-.943 3.564a.993.993 0 0 1-1.926-.023l-1.57-6.55-1.672 6.574a.987.987 0 0 1-1.914-.001l-.9-3.561h-3.008a.7.7 0 1 1 0-1.4h2.654l-.7-2.774a.696.696 0 1 1 1.353-.32l1.607 7.246 1.694-7.051a.967.967 0 0 1 1.884.014l1.57 7.001 1.618-7.211a.7.7 0 0 1 .68-.545" clip-rule="evenodd" fill-rule="evenodd"/>
</svg>
